<?xml version="1.0" encoding="UTF-8"?>
<svg width="91px" height="60px" viewBox="0 0 91 60" version="1.1" xmlns="http://www.w3.org/2000/svg" xmlns:xlink="http://www.w3.org/1999/xlink">
    <!-- Generator: Sketch 52.5 (67469) - http://www.bohemiancoding.com/sketch -->
    <title>logo</title>
    <desc>Created with Sketch.</desc>
    <defs>
        <polygon id="path-1" points="7.14285714e-05 0.141642857 90.1428571 0.141642857 90.1428571 60 7.14285714e-05 60"></polygon>
    </defs>
    <g id="logo" stroke="none" stroke-width="1" fill="none" fill-rule="evenodd">
        <g id="Group-22" transform="translate(0.000000, -0.714286)">
            <path d="M46.9311429,48.1098571 C47.0904286,47.9848571 47.1704286,47.737 47.1704286,47.372 C47.1704286,47.0448571 47.089,46.8362857 46.9211429,46.7341429 C46.8211429,46.6734286 46.6011429,46.6012857 46.1254286,46.6012857 L44.264,46.6012857 L44.264,48.2891429 L46.1368571,48.2891429 C46.5175714,48.2891429 46.7847143,48.2291429 46.9311429,48.1098571" id="Fill-1" fill="#181818"></path>
            <path d="M52.4814286,13.6495714 C52.8221429,13.6495714 53.0135714,13.436 53.0135714,13.1167143 L53.0135714,10.9295714 C53.0135714,10.6102857 52.8221429,10.3974286 52.4814286,10.3974286 C52.1478571,10.3974286 51.9564286,10.6102857 51.9564286,10.9295714 L51.9564286,13.1167143 C51.9564286,13.436 52.1478571,13.6495714 52.4814286,13.6495714" id="Fill-3" fill="#181818"></path>
            <path d="M51.345,41.9747857 C49.6564286,41.1533571 47.6835714,40.7362143 45.4835714,40.7362143 C42.9692857,40.7362143 40.8107143,41.1276429 39.0678571,41.9005 C36.5457143,43.0483571 35.2664286,44.8862143 35.2664286,47.3626429 C35.2664286,47.8076429 35.3142857,48.2233571 35.3921429,48.6212143 C35.4421429,48.8776429 35.5064286,49.1262143 35.5892857,49.3633571 C35.6785714,49.6219286 35.7814286,49.8712143 35.9092857,50.1062143 C36.0178571,50.3062143 36.14,50.4983571 36.2757143,50.6819286 C37.7592857,52.6797857 40.875,53.6890714 45.5914286,53.6890714 C48.0314286,53.6890714 50.055,53.2740714 51.6071429,52.4562143 C52.6964286,51.8826429 53.515,51.1383571 54.0607143,50.2312143 C54.085,50.1912143 54.1014286,50.1469286 54.1242857,50.1062143 C54.2585714,49.8697857 54.3735714,49.6219286 54.4707143,49.3633571 C54.5614286,49.1247857 54.6378571,48.8776429 54.6971429,48.6212143 C54.81,48.1326429 54.8742857,47.6169286 54.8742857,47.0633571 C54.8742857,44.8405 53.6871429,43.1290714 51.345,41.9747857 Z M51.2614286,46.2619286 L49.6778571,46.2619286 L49.6542857,46.2140714 C48.9521429,44.8140714 47.2135714,44.1033571 44.4857143,44.1033571 C43.2721429,44.1033571 42.23,44.3497857 41.3892857,44.8340714 C40.335,45.4305 39.8014286,46.3147857 39.8014286,47.4633571 C39.8014286,47.8855 39.8828571,48.2712143 40.04,48.6212143 C40.1614286,48.8905 40.3285714,49.1383571 40.5421429,49.3633571 C40.8114286,49.6469286 41.1528571,49.8947857 41.5671429,50.1062143 C41.5821429,50.1133571 41.5942857,50.1226429 41.6092857,50.1297857 C42.5292857,50.5933571 43.6428571,50.8290714 44.9192857,50.8290714 C46.1857143,50.8290714 47.2078571,50.6762143 47.9571429,50.3747857 C48.1542857,50.2976429 48.335,50.2055 48.5064286,50.1062143 C48.8557143,49.9040714 49.1514286,49.6569286 49.3914286,49.3633571 C49.5742857,49.1412143 49.7257143,48.8940714 49.8435714,48.6212143 C49.8857143,48.5240714 49.9257143,48.4255 49.96,48.3219286 L49.9792857,48.2626429 L51.2092857,48.2626429 L51.2035714,48.3547857 C51.1971429,48.4469286 51.1807143,48.5326429 51.1685714,48.6212143 C51.1314286,48.8826429 51.0678571,49.1305 50.975,49.3633571 C50.87,49.6283571 50.73,49.8762143 50.5514286,50.1062143 C50.2014286,50.5590714 49.7142857,50.9476429 49.0757143,51.2747857 C47.9592857,51.8540714 46.6221429,52.1469286 45.1028571,52.1469286 C43.36,52.1469286 41.8157143,51.8055 40.5135714,51.1319286 C39.9364286,50.8333571 39.47,50.4905 39.1007143,50.1062143 C38.8792857,49.8755 38.6978571,49.6269286 38.55,49.3633571 C38.4171429,49.1283571 38.305,48.8833571 38.2307143,48.6212143 C38.1328571,48.2790714 38.0835714,47.9140714 38.0835714,47.5247857 C38.0835714,45.9705 38.7807143,44.8055 40.2135714,43.9626429 C41.4064286,43.2626429 42.8514286,42.9083571 44.5085714,42.9083571 C45.55,42.9083571 46.4128571,42.9919286 47.0721429,43.1576429 C47.6321429,43.3090714 48.4364286,43.6340714 49.4642857,44.1226429 L49.6064286,44.1905 L49.6064286,43.0190714 L51.2614286,43.0190714 L51.2614286,46.2619286 Z M41.9935714,46.6012143 L41.9935714,45.5847857 L45.5271429,45.5847857 C46.3771429,45.5847857 46.9671429,45.6526429 47.3314286,45.7933571 C47.9914286,46.0505 48.3264286,46.5690714 48.3264286,47.3347857 C48.3264286,47.8805 48.195,48.3040714 47.9328571,48.6212143 C47.7957143,48.7876429 47.6228571,48.9262143 47.4107143,49.0326429 C47.01,49.2290714 46.3942857,49.3240714 45.5271429,49.3240714 L41.9742857,49.3240714 L41.9742857,48.2890714 L43.1678571,48.2890714 L43.1678571,46.6012143 L41.9935714,46.6012143 Z" id="Fill-5" fill="#181818"></path>
            <path d="M28.8551429,22.4651429 L27.1515714,22.4651429 L27.1515714,29.7322857 L28.8551429,29.7322857 C29.3465714,29.7322857 29.7544286,29.5672857 30.0758571,29.2344286 C30.3972857,28.9015714 30.558,28.5001429 30.558,28.0287143 L30.558,24.1701429 C30.558,23.698 30.3972857,23.2972857 30.0758571,22.9637143 C29.7544286,22.6308571 29.3465714,22.4651429 28.8551429,22.4651429" id="Fill-7" fill="#181818"></path>
            <path d="M31.1557143,13.6495714 C31.4964286,13.6495714 31.6878571,13.436 31.6878571,13.1167143 L31.6878571,10.9295714 C31.6878571,10.6102857 31.4964286,10.3974286 31.1557143,10.3974286 C30.8221429,10.3974286 30.6307143,10.6102857 30.6307143,10.9295714 L30.6307143,13.1167143 C30.6307143,13.436 30.8221429,13.6495714 31.1557143,13.6495714" id="Fill-9" fill="#181818"></path>
            <path d="M26.5869286,12.9465714 L26.5869286,11.1001429 C26.5869286,10.7237143 26.4097857,10.5037143 26.0190714,10.5037143 L25.5369286,10.5037143 L25.5369286,13.543 L26.0190714,13.543 C26.4097857,13.543 26.5869286,13.323 26.5869286,12.9465714" id="Fill-11" fill="#181818"></path>
            <path d="M61.7499286,22.4651429 L60.0470714,22.4651429 L60.0470714,35.2322857 L61.7499286,35.2322857 C62.2420714,35.2322857 62.6499286,35.0651429 62.9713571,34.7337143 C63.2920714,34.4015714 63.4535,34.0001429 63.4535,33.5272857 L63.4535,24.1701429 C63.4535,23.698 63.2920714,23.2972857 62.9713571,22.9637143 C62.6499286,22.6308571 62.2420714,22.4651429 61.7499286,22.4651429" id="Fill-13" fill="#181818"></path>
            <path d="M85.4435714,14.0520714 L73.1564286,14.0520714 L73.8028571,9.04992857 L68.8642857,9.04992857 L68.8642857,4.42707143 L21.7735714,4.42707143 L21.7735714,9.04992857 L16.34,9.04992857 L16.9864286,14.0520714 L4.69928571,14.0520714 C4.15285714,14.0520714 3.70928571,14.4956429 3.70928571,15.0427857 L3.70928571,40.2763571 C3.70928571,42.1906429 5.26,43.7420714 7.17285714,43.7420714 L18.8457143,43.7420714 L20.465,48.6213571 L31.0978571,48.6213571 C31.135,48.8735 31.1828571,49.1213571 31.2407143,49.3642143 C31.3014286,49.6163571 31.37,49.8649286 31.4528571,50.1063571 C32.1064286,52.0206429 33.4514286,53.6013571 35.4385714,54.7549286 C37.9978571,56.2356429 41.0985714,56.9899286 44.6585714,56.9899286 C48.2457143,56.9899286 51.485,56.2220714 54.285,54.7077857 C56.4364286,53.5499286 57.9007143,51.9856429 58.6242857,50.1063571 C58.7171429,49.8642143 58.7978571,49.6163571 58.8664286,49.3642143 C58.9321429,49.1213571 58.985,48.8727857 59.0278571,48.6213571 L69.6771429,48.6213571 L71.2971429,43.7420714 L82.97,43.7420714 C84.8828571,43.7420714 86.4328571,42.1906429 86.4328571,40.2763571 L86.4328571,15.0427857 C86.4328571,14.4956429 85.99,14.0520714 85.4435714,14.0520714 Z M18.9542857,25.1670714 L14.9378571,25.1670714 L14.9378571,23.7199286 C14.9378571,23.2270714 14.7771429,22.8199286 14.4564286,22.4970714 C14.135,22.1756429 13.7278571,22.0149286 13.235,22.0149286 C12.7642857,22.0149286 12.3628571,22.1756429 12.0314286,22.4970714 C11.6985714,22.8199286 11.5335714,23.2270714 11.5335714,23.7199286 L11.5335714,34.0742143 C11.5335714,34.5456429 11.6985714,34.9477857 12.0314286,35.2806429 C12.3628571,35.6127857 12.7642857,35.7785 13.235,35.7785 C13.7278571,35.7785 14.135,35.6127857 14.4564286,35.2806429 C14.7771429,34.9477857 14.9378571,34.5456429 14.9378571,34.0742143 L14.9378571,32.5942143 L18.9542857,32.5942143 L18.9542857,34.0742143 C18.9542857,34.8677857 18.8042857,35.6063571 18.505,36.2927857 C18.205,36.9799286 17.7978571,37.5799286 17.2842857,38.0942143 C16.77,38.6085 16.1642857,39.0163571 15.4685714,39.3156429 C14.7721429,39.6156429 14.0278571,39.7663571 13.235,39.7663571 C12.4428571,39.7663571 11.7035714,39.6156429 11.0178571,39.3156429 C10.3328571,39.0163571 9.73357143,38.6085 9.21928571,38.0942143 C8.70571429,37.5799286 8.29857143,36.9799286 7.99857143,36.2927857 C7.69857143,35.6063571 7.54857143,34.8677857 7.54857143,34.0742143 L7.54857143,23.7199286 C7.54857143,22.9270714 7.69857143,22.1870714 7.99857143,21.5013571 C8.29857143,20.8142143 8.70571429,20.2149286 9.21928571,19.6999286 C9.73357143,19.1849286 10.3328571,18.7785 11.0178571,18.4785 C11.7035714,18.1785 12.4428571,18.0277857 13.235,18.0277857 C14.0278571,18.0277857 14.7721429,18.1785 15.4685714,18.4785 C16.1642857,18.7785 16.77,19.1849286 17.2842857,19.6999286 C17.7978571,20.2149286 18.205,20.8142143 18.505,21.5013571 C18.8042857,22.1870714 18.9542857,22.9270714 18.9542857,23.7199286 L18.9542857,25.1670714 Z M62.4635714,9.6585 L63.3078571,9.6585 L64.3221429,11.5977857 L64.705,12.3713571 L64.705,9.6585 L65.62,9.6585 L65.62,14.3877857 L64.84,14.3877857 L63.7971429,12.4920714 L63.3921429,11.7177857 L63.3921429,14.3877857 L62.4635714,14.3877857 L62.4635714,9.6585 Z M56.7592857,9.6585 L57.27,12.7549286 L57.8657143,9.6585 L58.6535714,9.6585 L59.2207143,12.7549286 L59.7457143,9.6585 L60.6828571,9.6585 L59.6892857,14.3877857 L58.7814286,14.3877857 L58.2207143,11.6256429 L57.6392857,14.3877857 L56.7378571,14.3877857 L55.7521429,9.6585 L56.7592857,9.6585 Z M50.9278571,10.9863571 C50.9278571,10.1492143 51.5092857,9.54492857 52.4814286,9.54492857 C53.4607143,9.54492857 54.035,10.1492143 54.035,10.9863571 L54.035,13.0599286 C54.035,13.9056429 53.4607143,14.5085 52.4814286,14.5085 C51.5092857,14.5085 50.9278571,13.9056429 50.9278571,13.0599286 L50.9278571,10.9863571 Z M46.1392857,9.6585 L49.19,9.6585 L49.19,10.5249286 L48.175,10.5249286 L48.175,14.3877857 L47.1607143,14.3877857 L47.1607143,10.5249286 L46.1392857,10.5249286 L46.1392857,9.6585 Z M41.1371429,9.6585 L41.9814286,9.6585 L42.9964286,11.5977857 L43.3792857,12.3713571 L43.3792857,9.6585 L44.2942857,9.6585 L44.2942857,14.3877857 L43.5142857,14.3877857 L42.4714286,12.4920714 L42.0664286,11.7177857 L42.0664286,14.3877857 L41.1371429,14.3877857 L41.1371429,9.6585 Z M39.7764286,18.4785 L51.1828571,18.4785 L51.1828571,22.4656429 L43.76,22.4656429 L43.76,26.8713571 L49.1892857,26.8713571 L49.1892857,30.8585 L43.76,30.8585 L43.76,35.2320714 L51.1828571,35.2320714 L51.1828571,38.5013571 C49.4271429,37.9542143 47.5578571,37.6713571 45.5857143,37.6713571 C43.5157143,37.6713571 41.5771429,37.9127857 39.7764286,38.3763571 L39.7764286,18.4785 Z M35.4335714,9.6585 L35.9442857,12.7549286 L36.5407143,9.6585 L37.3278571,9.6585 L37.8957143,12.7549286 L38.4207143,9.6585 L39.3571429,9.6585 L38.3635714,14.3877857 L37.4557143,14.3877857 L36.895,11.6256429 L36.3128571,14.3877857 L35.4121429,14.3877857 L34.4264286,9.6585 L35.4335714,9.6585 Z M29.6021429,10.9863571 C29.6021429,10.1492143 30.1835714,9.54492857 31.1557143,9.54492857 C32.135,9.54492857 32.7092857,10.1492143 32.7092857,10.9863571 L32.7092857,13.0599286 C32.7092857,13.9056429 32.135,14.5085 31.1557143,14.5085 C30.1835714,14.5085 29.6021429,13.9056429 29.6021429,13.0599286 L29.6021429,10.9863571 Z M24.5221429,9.6585 L26.0971429,9.6585 C27.0764286,9.6585 27.6014286,10.2906429 27.6014286,11.0792143 L27.6014286,13.0249286 C27.6014286,13.8199286 27.0764286,14.3877857 26.0971429,14.3877857 L24.5221429,14.3877857 L24.5221429,9.6585 Z M30.4614286,39.2192143 L28.2442857,33.7206429 L27.1521429,33.7206429 L27.1521429,39.2192143 L23.1685714,39.2192143 L23.1685714,18.4785 L28.855,18.4785 C29.6471429,18.4785 30.3914286,18.6285 31.0871429,18.9285 C31.7835714,19.2285 32.3885714,19.6363571 32.9028571,20.1499286 C33.4178571,20.6649286 33.8235714,21.2649286 34.1235714,21.9506429 C34.4235714,22.6370714 34.5735714,23.3777857 34.5735714,24.1699286 L34.5735714,28.0285 C34.5735714,28.9935 34.3542857,29.8827857 33.915,30.6985 C33.4757143,31.5127857 32.8807143,32.1770714 32.1321429,32.6913571 L34.61,38.8320714 L34.7664286,39.2192143 L30.4614286,39.2192143 Z M56.3007143,48.6213571 C56.2442857,48.8749286 56.17,49.1227857 56.0814286,49.3642143 C55.9878571,49.6192143 55.875,49.8663571 55.7457143,50.1063571 C55.0971429,51.3156429 54.0085714,52.3342143 52.5028571,53.1163571 C50.2435714,54.2942143 47.6321429,54.8913571 44.74,54.8913571 C41.8735714,54.8913571 39.3707143,54.3056429 37.3014286,53.1520714 C35.9078571,52.3713571 34.9064286,51.3399286 34.315,50.1063571 C34.2007143,49.8663571 34.1007143,49.6192143 34.0178571,49.3642143 C33.9385714,49.1220714 33.8714286,48.8756429 33.8214286,48.6213571 C33.7357143,48.1842143 33.6921429,47.7285 33.6921429,47.2556429 C33.6921429,46.4142143 33.8521429,45.6292143 34.1585714,44.9077857 C34.7642857,43.4842143 35.9521429,42.3077857 37.6864286,41.4449286 C39.9228571,40.3327857 42.5457143,39.7692143 45.4835714,39.7692143 C48.1564286,39.7692143 50.6028571,40.3763571 52.7564286,41.5720714 L52.7564286,41.5727857 C54.3228571,42.4492143 55.4071429,43.5813571 55.9792857,44.9077857 C56.2892857,45.6285 56.4514286,46.4056429 56.4514286,47.2327857 C56.4514286,47.7135 56.4,48.1763571 56.3007143,48.6213571 Z M67.4692857,33.5277857 C67.4692857,34.3213571 67.3192857,35.0599286 67.0192857,35.7463571 C66.7192857,36.4320714 66.3121429,37.0327857 65.7985714,37.5463571 C65.2842857,38.0606429 64.6785714,38.4685 63.9828571,38.7692143 C63.2871429,39.0699286 62.5421429,39.2192143 61.75,39.2192143 L56.0635714,39.2192143 L56.0635714,18.4785 L61.75,18.4785 C62.5421429,18.4785 63.2871429,18.6285 63.9828571,18.9285 C64.6785714,19.2285 65.2842857,19.6363571 65.7985714,20.1499286 C66.3121429,20.6649286 66.7192857,21.2649286 67.0192857,21.9506429 C67.3192857,22.6370714 67.4692857,23.3777857 67.4692857,24.1699286 L67.4692857,33.5277857 Z M82.5935714,34.0742143 C82.5935714,34.8677857 82.4435714,35.6063571 82.1435714,36.2927857 C81.8428571,36.9799286 81.4364286,37.5799286 80.9228571,38.0942143 C80.4078571,38.6085 79.8035714,39.0163571 79.1071429,39.3156429 C78.4114286,39.6156429 77.6664286,39.7663571 76.8742857,39.7663571 C76.0821429,39.7663571 75.3428571,39.6156429 74.6578571,39.3156429 C73.9714286,39.0163571 73.3728571,38.6085 72.8578571,38.0942143 C72.3442857,37.5799286 71.9371429,36.9799286 71.6378571,36.2927857 C71.3378571,35.6063571 71.1871429,34.8677857 71.1871429,34.0742143 L71.1871429,23.7199286 C71.1871429,22.9270714 71.3378571,22.1870714 71.6378571,21.5013571 C71.9371429,20.8142143 72.3442857,20.2149286 72.8578571,19.6999286 C73.3728571,19.1849286 73.9714286,18.7785 74.6578571,18.4785 C75.3428571,18.1785 76.0821429,18.0277857 76.8742857,18.0277857 C77.6664286,18.0277857 78.4114286,18.1785 79.1071429,18.4785 C79.8035714,18.7785 80.4078571,19.1849286 80.9228571,19.6999286 C81.4364286,20.2149286 81.8428571,20.8142143 82.1435714,21.5013571 C82.4435714,22.1870714 82.5935714,22.9270714 82.5935714,23.7199286 L82.5935714,34.0742143 Z" id="Fill-15" fill="#181818"></path>
            <path d="M76.8740714,22.0150714 C76.4026429,22.0150714 76.0019286,22.1757857 75.6697857,22.4979286 C75.3369286,22.8193571 75.1719286,23.2272143 75.1719286,23.7200714 L75.1719286,34.0736429 C75.1719286,34.5465 75.3369286,34.9479286 75.6697857,35.2800714 C76.0019286,35.6122143 76.4026429,35.7779286 76.8740714,35.7779286 C77.3669286,35.7779286 77.7733571,35.6122143 78.0955,35.2800714 C78.4162143,34.9479286 78.5776429,34.5465 78.5776429,34.0736429 L78.5776429,23.7200714 C78.5776429,23.2272143 78.4162143,22.8193571 78.0955,22.4979286 C77.7733571,22.1757857 77.3669286,22.0150714 76.8740714,22.0150714" id="Fill-17" fill="#181818"></path>
            <g id="Group-21" transform="translate(0.000000, 0.572714)">
                <mask id="mask-2" fill="white">
                    <use xlink:href="#path-1"></use>
                </mask>
                <g id="Clip-20"></g>
                <path d="M85.4436429,9.76592857 L77.3772143,9.76592857 L78.0236429,4.7645 L72.5743571,4.7645 L72.5743571,0.141642857 L18.0636429,0.141642857 L18.0636429,4.7645 L12.1193571,4.7645 L12.7657857,9.76592857 L4.69935714,9.76592857 C2.10792857,9.76592857 7.14285714e-05,11.8759286 7.14285714e-05,14.4695 L7.14285714e-05,39.7030714 C7.14285714e-05,43.6616429 3.21792857,46.8823571 7.17292857,46.8823571 L16.1686429,46.8823571 L17.7893571,51.7616429 L28.4050714,51.7616429 C29.4479286,54.0116429 31.1986429,55.8830714 33.5815,57.2666429 C36.7165,59.0802143 40.4436429,60.0002143 44.6586429,60.0002143 C48.8686429,60.0002143 52.7000714,59.0823571 56.0415,57.2752143 C58.6115,55.8923571 60.5057857,54.0173571 61.6365,51.7616429 L72.3543571,51.7616429 L73.9736429,46.8823571 L82.9700714,46.8823571 C86.9250714,46.8823571 90.1429286,43.6616429 90.1429286,39.7030714 L90.1429286,14.4695 C90.1429286,11.8759286 88.0350714,9.76592857 85.4436429,9.76592857 Z M87.9172143,39.7037857 C87.9172143,42.4337857 85.6979286,44.6552143 82.9700714,44.6552143 L72.3679286,44.6552143 L71.0857857,48.5166429 L70.7479286,49.5337857 L60.5407857,49.5337857 C59.7986429,52.0273571 58.0165,54.0795 55.2750714,55.5559286 C52.1729286,57.2330714 48.5922143,58.0837857 44.6350714,58.0837857 C40.7029286,58.0837857 37.2586429,57.2452143 34.3979286,55.5902143 C31.8679286,54.1209286 30.2286429,52.0559286 29.5565,49.5337857 L19.3943571,49.5337857 L19.0572143,48.5166429 L17.7750714,44.6552143 L7.17292857,44.6552143 C4.44507143,44.6552143 2.22578571,42.4337857 2.22578571,39.7037857 L2.22578571,14.4695 C2.22578571,13.1045 3.33507143,11.9937857 4.69935714,11.9937857 L15.2979286,11.9937857 L14.8679286,8.66807143 L14.6515,6.99164286 L20.2893571,6.99164286 L20.2893571,2.3695 L70.3486429,2.3695 L70.3486429,6.99164286 L75.4915,6.99164286 L75.2750714,8.66807143 L74.8443571,11.9937857 L85.4436429,11.9937857 C86.8072143,11.9937857 87.9172143,13.1045 87.9172143,14.4695 L87.9172143,39.7037857 Z" id="Fill-19" fill="#181818" mask="url(#mask-2)"></path>
            </g>
        </g>
    </g>
</svg>