<?xml version="1.0" encoding="UTF-8"?>
<svg width="91px" height="60px" viewBox="0 0 91 60" version="1.1" xmlns="http://www.w3.org/2000/svg" xmlns:xlink="http://www.w3.org/1999/xlink">
    <!-- Generator: Sketch 52.5 (67469) - http://www.bohemiancoding.com/sketch -->
    <title>logo-white</title>
    <desc>Created with Sketch.</desc>
    <g id="logo-white" stroke="none" stroke-width="1" fill="none" fill-rule="evenodd">
        <path d="M46.9306,47.3955 C47.0906,47.2705 47.1706,47.0225 47.1706,46.6585 C47.1706,46.3315 47.0886,46.1225 46.9206,46.0195 C46.8216,45.9585 46.6016,45.8865 46.1246,45.8865 L44.2636,45.8865 L44.2636,47.5755 L46.1366,47.5755 C46.5176,47.5755 46.7846,47.5145 46.9306,47.3955" id="Fill-1" fill="#FFFFFF"></path>
        <path d="M52.4814,12.935 C52.8224,12.935 53.0134,12.722 53.0134,12.402 L53.0134,10.215 C53.0134,9.896 52.8224,9.683 52.4814,9.683 C52.1474,9.683 51.9564,9.896 51.9564,10.215 L51.9564,12.402 C51.9564,12.722 52.1474,12.935 52.4814,12.935" id="Fill-3" fill="#FFFFFF"></path>
        <path d="M41.9936,45.8867 L41.9936,44.8697 L45.5276,44.8697 C46.3766,44.8697 46.9666,44.9387 47.3306,45.0787 C47.9916,45.3357 48.3266,45.8547 48.3266,46.6197 C48.3266,47.1657 48.1956,47.5897 47.9326,47.9077 C47.7956,48.0737 47.6226,48.2117 47.4106,48.3187 C47.0096,48.5147 46.3946,48.6097 45.5276,48.6097 L41.9736,48.6097 L41.9736,47.5747 L43.1676,47.5747 L43.1676,45.8867 L41.9936,45.8867 Z M51.2616,45.5477 L49.6776,45.5477 L49.6546,45.4997 C48.9516,44.0997 47.2136,43.3887 44.4856,43.3887 C43.2716,43.3887 42.2296,43.6357 41.3896,44.1197 C40.3346,44.7157 39.8016,45.6007 39.8016,46.7487 C39.8016,47.1707 39.8826,47.5567 40.0396,47.9077 C40.1616,48.1757 40.3286,48.4237 40.5416,48.6497 C40.8116,48.9327 41.1526,49.1807 41.5676,49.3917 C41.5816,49.3997 41.5946,49.4077 41.6096,49.4147 C42.5296,49.8787 43.6426,50.1157 44.9196,50.1157 C46.1856,50.1157 47.2076,49.9617 47.9566,49.6597 C48.1546,49.5827 48.3346,49.4907 48.5066,49.3917 C48.8556,49.1897 49.1516,48.9427 49.3916,48.6497 C49.5746,48.4267 49.7256,48.1797 49.8436,47.9077 C49.8856,47.8097 49.9256,47.7107 49.9596,47.6077 L49.9796,47.5487 L51.2086,47.5487 L51.2026,47.6407 C51.1976,47.7327 51.1806,47.8187 51.1686,47.9077 C51.1316,48.1677 51.0676,48.4157 50.9746,48.6497 C50.8696,48.9137 50.7306,49.1617 50.5516,49.3917 C50.2016,49.8447 49.7136,50.2337 49.0766,50.5607 C47.9586,51.1397 46.6216,51.4327 45.1026,51.4327 C43.3596,51.4327 41.8156,51.0907 40.5136,50.4177 C39.9366,50.1187 39.4706,49.7767 39.1006,49.3917 C38.8796,49.1607 38.6976,48.9127 38.5496,48.6497 C38.4166,48.4137 38.3056,48.1687 38.2306,47.9077 C38.1326,47.5647 38.0836,47.1997 38.0836,46.8107 C38.0836,45.2557 38.7806,44.0907 40.2136,43.2477 C41.4066,42.5487 42.8516,42.1947 44.5086,42.1947 C45.5496,42.1947 46.4126,42.2777 47.0726,42.4437 C47.6316,42.5947 48.4366,42.9197 49.4636,43.4077 L49.6066,43.4767 L49.6066,42.3047 L51.2616,42.3047 L51.2616,45.5477 Z M51.3446,41.2607 C49.6566,40.4397 47.6836,40.0217 45.4836,40.0217 C42.9696,40.0217 40.8106,40.4127 39.0676,41.1867 C36.5456,42.3337 35.2666,44.1717 35.2666,46.6487 C35.2666,47.0937 35.3146,47.5087 35.3916,47.9077 C35.4426,48.1627 35.5066,48.4117 35.5896,48.6497 C35.6786,48.9077 35.7816,49.1577 35.9096,49.3917 C36.0176,49.5917 36.1396,49.7837 36.2756,49.9677 C37.7596,51.9657 40.8746,52.9747 45.5916,52.9747 C48.0316,52.9747 50.0546,52.5597 51.6076,51.7417 C52.6966,51.1677 53.5146,50.4237 54.0606,49.5167 C54.0846,49.4767 54.1016,49.4327 54.1236,49.3917 C54.2586,49.1557 54.3736,48.9077 54.4706,48.6497 C54.5616,48.4097 54.6376,48.1627 54.6976,47.9077 C54.8096,47.4177 54.8736,46.9027 54.8736,46.3487 C54.8736,44.1257 53.6876,42.4147 51.3446,41.2607 Z" id="Fill-5" fill="#FFFFFF"></path>
        <path d="M28.8549,21.7509 L27.1509,21.7509 L27.1509,29.0179 L28.8549,29.0179 C29.3469,29.0179 29.7539,28.8529 30.0759,28.5199 C30.3969,28.1879 30.5579,27.7859 30.5579,27.3139 L30.5579,23.4559 C30.5579,22.9839 30.3969,22.5829 30.0759,22.2499 C29.7539,21.9169 29.3469,21.7509 28.8549,21.7509" id="Fill-7" fill="#FFFFFF"></path>
        <path d="M31.1557,12.935 C31.4967,12.935 31.6877,12.722 31.6877,12.402 L31.6877,10.215 C31.6877,9.896 31.4967,9.683 31.1557,9.683 C30.8227,9.683 30.6307,9.896 30.6307,10.215 L30.6307,12.402 C30.6307,12.722 30.8227,12.935 31.1557,12.935" id="Fill-9" fill="#FFFFFF"></path>
        <path d="M26.5868,12.2324 L26.5868,10.3854 C26.5868,10.0094 26.4098,9.7894 26.0188,9.7894 L25.5368,9.7894 L25.5368,12.8284 L26.0188,12.8284 C26.4098,12.8284 26.5868,12.6084 26.5868,12.2324" id="Fill-11" fill="#FFFFFF"></path>
        <path d="M61.7499,21.7509 L60.0469,21.7509 L60.0469,34.5179 L61.7499,34.5179 C62.2419,34.5179 62.6499,34.3509 62.9719,34.0199 C63.2919,33.6879 63.4529,33.2859 63.4529,32.8139 L63.4529,23.4559 C63.4529,22.9839 63.2919,22.5829 62.9719,22.2499 C62.6499,21.9169 62.2419,21.7509 61.7499,21.7509" id="Fill-13" fill="#FFFFFF"></path>
        <path d="M82.5937,33.3603 C82.5937,34.1533 82.4437,34.8913 82.1437,35.5783 C81.8427,36.2653 81.4367,36.8653 80.9227,37.3803 C80.4077,37.8943 79.8037,38.3013 79.1077,38.6013 C78.4107,38.9013 77.6657,39.0513 76.8737,39.0513 C76.0817,39.0513 75.3427,38.9013 74.6577,38.6013 C73.9717,38.3013 73.3727,37.8943 72.8577,37.3803 C72.3447,36.8653 71.9377,36.2653 71.6377,35.5783 C71.3377,34.8913 71.1877,34.1533 71.1877,33.3603 L71.1877,23.0063 C71.1877,22.2133 71.3377,21.4723 71.6377,20.7873 C71.9377,20.1003 72.3447,19.5003 72.8577,18.9853 C73.3727,18.4703 73.9717,18.0643 74.6577,17.7643 C75.3427,17.4643 76.0817,17.3133 76.8737,17.3133 C77.6657,17.3133 78.4107,17.4643 79.1077,17.7643 C79.8037,18.0643 80.4077,18.4703 80.9227,18.9853 C81.4367,19.5003 81.8427,20.1003 82.1437,20.7873 C82.4437,21.4723 82.5937,22.2133 82.5937,23.0063 L82.5937,33.3603 Z M67.4697,32.8133 C67.4697,33.6073 67.3197,34.3453 67.0197,35.0323 C66.7197,35.7173 66.3127,36.3183 65.7987,36.8323 C65.2837,37.3463 64.6787,37.7543 63.9827,38.0543 C63.2867,38.3553 62.5417,38.5053 61.7497,38.5053 L56.0637,38.5053 L56.0637,17.7643 L61.7497,17.7643 C62.5417,17.7643 63.2867,17.9143 63.9827,18.2143 C64.6787,18.5143 65.2837,18.9223 65.7987,19.4353 C66.3127,19.9503 66.7197,20.5503 67.0197,21.2363 C67.3197,21.9223 67.4697,22.6633 67.4697,23.4553 L67.4697,32.8133 Z M56.3007,47.9073 C56.2437,48.1603 56.1697,48.4083 56.0807,48.6503 C55.9887,48.9053 55.8747,49.1523 55.7457,49.3913 C55.0967,50.6013 54.0087,51.6203 52.5027,52.4023 C50.2427,53.5803 47.6317,54.1763 44.7397,54.1763 C41.8737,54.1763 39.3707,53.5913 37.3017,52.4373 C35.9077,51.6573 34.9057,50.6263 34.3147,49.3913 C34.2007,49.1523 34.1007,48.9053 34.0177,48.6503 C33.9387,48.4083 33.8717,48.1613 33.8217,47.9073 C33.7357,47.4693 33.6927,47.0143 33.6927,46.5413 C33.6927,45.7003 33.8517,44.9153 34.1587,44.1933 C34.7637,42.7693 35.9517,41.5933 37.6867,40.7303 C39.9227,39.6183 42.5457,39.0543 45.4837,39.0543 C48.1557,39.0543 50.6027,39.6623 52.7567,40.8573 L52.7567,40.8583 C54.3227,41.7353 55.4067,42.8673 55.9797,44.1933 C56.2887,44.9143 56.4507,45.6913 56.4507,46.5183 C56.4507,46.9993 56.4007,47.4623 56.3007,47.9073 Z M30.4617,38.5053 L28.2437,33.0063 L27.1527,33.0063 L27.1527,38.5053 L23.1687,38.5053 L23.1687,17.7643 L28.8547,17.7643 C29.6467,17.7643 30.3917,17.9143 31.0867,18.2143 C31.7837,18.5143 32.3887,18.9223 32.9027,19.4353 C33.4177,19.9503 33.8237,20.5503 34.1237,21.2363 C34.4237,21.9223 34.5737,22.6633 34.5737,23.4553 L34.5737,27.3143 C34.5737,28.2793 34.3547,29.1683 33.9147,29.9843 C33.4757,30.7983 32.8807,31.4633 32.1327,31.9773 L34.6097,38.1183 L34.7667,38.5053 L30.4617,38.5053 Z M24.5217,8.9443 L26.0967,8.9443 C27.0767,8.9443 27.6017,9.5763 27.6017,10.3643 L27.6017,12.3103 C27.6017,13.1053 27.0767,13.6733 26.0967,13.6733 L24.5217,13.6733 L24.5217,8.9443 Z M29.6017,10.2723 C29.6017,9.4353 30.1837,8.8303 31.1557,8.8303 C32.1347,8.8303 32.7097,9.4353 32.7097,10.2723 L32.7097,12.3453 C32.7097,13.1913 32.1347,13.7943 31.1557,13.7943 C30.1837,13.7943 29.6017,13.1913 29.6017,12.3453 L29.6017,10.2723 Z M35.4337,8.9443 L35.9447,12.0403 L36.5407,8.9443 L37.3277,8.9443 L37.8957,12.0403 L38.4207,8.9443 L39.3567,8.9443 L38.3637,13.6733 L37.4557,13.6733 L36.8947,10.9113 L36.3127,13.6733 L35.4117,13.6733 L34.4267,8.9443 L35.4337,8.9443 Z M39.7767,17.7643 L51.1827,17.7643 L51.1827,21.7513 L43.7597,21.7513 L43.7597,26.1573 L49.1897,26.1573 L49.1897,30.1443 L43.7597,30.1443 L43.7597,34.5173 L51.1827,34.5173 L51.1827,37.7873 C49.4267,37.2403 47.5577,36.9573 45.5857,36.9573 C43.5157,36.9573 41.5767,37.1983 39.7767,37.6623 L39.7767,17.7643 Z M41.1367,8.9443 L41.9817,8.9443 L42.9967,10.8833 L43.3797,11.6573 L43.3797,8.9443 L44.2947,8.9443 L44.2947,13.6733 L43.5137,13.6733 L42.4707,11.7773 L42.0667,11.0033 L42.0667,13.6733 L41.1367,13.6733 L41.1367,8.9443 Z M46.1397,8.9443 L49.1907,8.9443 L49.1907,9.8103 L48.1747,9.8103 L48.1747,13.6733 L47.1607,13.6733 L47.1607,9.8103 L46.1397,9.8103 L46.1397,8.9443 Z M50.9277,10.2723 C50.9277,9.4353 51.5097,8.8303 52.4817,8.8303 C53.4607,8.8303 54.0347,9.4353 54.0347,10.2723 L54.0347,12.3453 C54.0347,13.1913 53.4607,13.7943 52.4817,13.7943 C51.5097,13.7943 50.9277,13.1913 50.9277,12.3453 L50.9277,10.2723 Z M56.7597,8.9443 L57.2697,12.0403 L57.8647,8.9443 L58.6537,8.9443 L59.2207,12.0403 L59.7457,8.9443 L60.6827,8.9443 L59.6897,13.6733 L58.7807,13.6733 L58.2207,10.9113 L57.6397,13.6733 L56.7387,13.6733 L55.7517,8.9443 L56.7597,8.9443 Z M62.4637,8.9443 L63.3077,8.9443 L64.3227,10.8833 L64.7047,11.6573 L64.7047,8.9443 L65.6197,8.9443 L65.6197,13.6733 L64.8397,13.6733 L63.7967,11.7773 L63.3927,11.0033 L63.3927,13.6733 L62.4637,13.6733 L62.4637,8.9443 Z M18.9537,24.4523 L14.9377,24.4523 L14.9377,23.0063 C14.9377,22.5123 14.7777,22.1053 14.4567,21.7823 C14.1347,21.4613 13.7277,21.3003 13.2347,21.3003 C12.7637,21.3003 12.3627,21.4613 12.0307,21.7823 C11.6987,22.1053 11.5337,22.5123 11.5337,23.0063 L11.5337,33.3603 C11.5337,33.8313 11.6987,34.2333 12.0307,34.5663 C12.3627,34.8983 12.7637,35.0643 13.2347,35.0643 C13.7277,35.0643 14.1347,34.8983 14.4567,34.5663 C14.7777,34.2333 14.9377,33.8313 14.9377,33.3603 L14.9377,31.8803 L18.9537,31.8803 L18.9537,33.3603 C18.9537,34.1533 18.8037,34.8913 18.5047,35.5783 C18.2047,36.2653 17.7977,36.8653 17.2837,37.3803 C16.7697,37.8943 16.1637,38.3013 15.4687,38.6013 C14.7717,38.9013 14.0277,39.0513 13.2347,39.0513 C12.4427,39.0513 11.7037,38.9013 11.0177,38.6013 C10.3327,38.3013 9.7337,37.8943 9.2187,37.3803 C8.7057,36.8653 8.2987,36.2653 7.9987,35.5783 C7.6987,34.8913 7.5487,34.1533 7.5487,33.3603 L7.5487,23.0063 C7.5487,22.2133 7.6987,21.4723 7.9987,20.7873 C8.2987,20.1003 8.7057,19.5003 9.2187,18.9853 C9.7337,18.4703 10.3327,18.0643 11.0177,17.7643 C11.7037,17.4643 12.4427,17.3133 13.2347,17.3133 C14.0277,17.3133 14.7717,17.4643 15.4687,17.7643 C16.1637,18.0643 16.7697,18.4703 17.2837,18.9853 C17.7977,19.5003 18.2047,20.1003 18.5047,20.7873 C18.8037,21.4723 18.9537,22.2133 18.9537,23.0063 L18.9537,24.4523 Z M85.4437,13.3383 L73.1557,13.3383 L73.8027,8.3353 L68.8647,8.3353 L68.8647,3.7133 L21.7737,3.7133 L21.7737,8.3353 L16.3397,8.3353 L16.9867,13.3383 L4.6987,13.3383 C4.1527,13.3383 3.7097,13.7813 3.7097,14.3283 L3.7097,39.5623 C3.7097,41.4763 5.2597,43.0273 7.1727,43.0273 L18.8457,43.0273 L20.4647,47.9073 L31.0977,47.9073 C31.1347,48.1593 31.1827,48.4073 31.2407,48.6503 C31.3017,48.9023 31.3697,49.1503 31.4527,49.3913 C32.1067,51.3063 33.4517,52.8863 35.4387,54.0413 C37.9977,55.5213 41.0987,56.2753 44.6587,56.2753 C48.2457,56.2753 51.4857,55.5073 54.2847,53.9933 C56.4367,52.8363 57.9007,51.2713 58.6237,49.3913 C58.7167,49.1503 58.7977,48.9023 58.8657,48.6503 C58.9327,48.4073 58.9857,48.1583 59.0287,47.9073 L69.6767,47.9073 L71.2967,43.0273 L82.9697,43.0273 C84.8827,43.0273 86.4327,41.4763 86.4327,39.5623 L86.4327,14.3283 C86.4327,13.7813 85.9897,13.3383 85.4437,13.3383 Z" id="Fill-15" fill="#FFFFFF"></path>
        <path d="M76.874,21.3007 C76.402,21.3007 76.002,21.4617 75.67,21.7837 C75.337,22.1047 75.172,22.5127 75.172,23.0057 L75.172,33.3597 C75.172,33.8317 75.337,34.2337 75.67,34.5657 C76.002,34.8977 76.402,35.0637 76.874,35.0637 C77.367,35.0637 77.773,34.8977 78.096,34.5657 C78.416,34.2337 78.578,33.8317 78.578,33.3597 L78.578,23.0057 C78.578,22.5127 78.416,22.1047 78.096,21.7837 C77.773,21.4617 77.367,21.3007 76.874,21.3007" id="Fill-17" fill="#FFFFFF"></path>
        <path d="M87.9169,39.5625 C87.9169,42.2915 85.6979,44.5135 82.9699,44.5135 L72.3679,44.5135 L71.0859,48.3755 L70.7479,49.3925 L60.5409,49.3925 C59.7989,51.8855 58.0169,53.9375 55.2749,55.4145 C52.1729,57.0915 48.5919,57.9425 44.6349,57.9425 C40.7029,57.9425 37.2589,57.1035 34.3979,55.4485 C31.8679,53.9795 30.2289,51.9145 29.5569,49.3925 L19.3949,49.3925 L19.0569,48.3755 L17.7749,44.5135 L7.1729,44.5135 C4.4449,44.5135 2.2259,42.2915 2.2259,39.5625 L2.2259,14.3285 C2.2259,12.9625 3.3349,11.8525 4.6989,11.8525 L15.2979,11.8525 L14.8679,8.5265 L14.6509,6.8505 L20.2899,6.8505 L20.2899,2.2285 L70.3489,2.2285 L70.3489,6.8505 L75.4909,6.8505 L75.2749,8.5265 L74.8449,11.8525 L85.4429,11.8525 C86.8079,11.8525 87.9169,12.9625 87.9169,14.3285 L87.9169,39.5625 Z M85.4429,9.6245 L77.3769,9.6245 L78.0229,4.6235 L72.5739,4.6235 L72.5739,-0.0005 L18.0629,-0.0005 L18.0629,4.6235 L12.1189,4.6235 L12.7659,9.6245 L4.6989,9.6245 C2.1079,9.6245 -0.0001,11.7345 -0.0001,14.3285 L-0.0001,39.5615 C-0.0001,43.5205 3.2179,46.7415 7.1729,46.7415 L16.1679,46.7415 L17.7899,51.6205 L28.4049,51.6205 C29.4479,53.8705 31.1989,55.7415 33.5819,57.1245 C36.7159,58.9385 40.4439,59.8585 44.6589,59.8585 C48.8679,59.8585 52.6999,58.9405 56.0409,57.1335 C58.6109,55.7505 60.5059,53.8755 61.6369,51.6205 L72.3539,51.6205 L73.9739,46.7415 L82.9699,46.7415 C86.9249,46.7415 90.1429,43.5205 90.1429,39.5615 L90.1429,14.3285 C90.1429,11.7345 88.0349,9.6245 85.4429,9.6245 Z" id="Fill-19" fill="#FFFFFF"></path>
    </g>
</svg>